{"title":"Unthinkable.2010.BRRip.AAC.H264-LTT","uid":5614111,"size":1560457747,"categoryP":"video","categoryS":"hd___movies","magnet":"?xt=urn:btih:fbf73e9eb2be5f2207a6ab7c6aa4ceb297cb3b5d&amp;dn=Unthinkable.2010.BRRip.AAC.H264-LTT&amp;tr=udp%3A%2F%2Ftracker.openbittorrent.com%3A80&amp;tr=udp%3A%2F%2Fopen.demonii.com%3A1337&amp;tr=udp%3A%2F%2Ftracker.coppersurfer.tk%3A6969&amp;tr=udp%3A%2F%2Fexodus.desync.com%3A6969","seeders":0,"leechers":1,"uploader":"Ltt_01","files":5,"time":1276003763,"description":"Unthinkable.2010.mp4\n********************\n\nTiTLE......  Unthinkable\nYEAR.......  2010\nGENRE......  Drama | Thriller\niMDB RATE..  User Rating: 7.3/10 (4,697 votes)\niMDB URL... &lt;a href=&quot; http://www.imdb.com/title/tt0914863/&quot; rel=&quot;nofollow&quot; target=&quot;_NEW&quot;&gt; http://www.imdb.com/title/tt0914863/&lt;/a&gt;\n*************************************************\n\nVideo\nDuration                         : 1h 37mn\nBit rate mode                    : Variable\nOverall bit rate                 : 2 121 Kbps\nBit rate                         : 1 702 Kbps\nMaximum bit rate                 : 11.5 Mbps\nWidth                            : 1 280 pixels\nHeight                           : 688 pixels\nFrame rate                       : 23.976 fps\nStream size                      : 1.15 GiB (80%)\n\nAudio\nFormat                           : AAC\nFormat/Info                      : Advanced Audio Codec\nBit rate mode                    : Variable\nBit rate                         : 423 Kbps\nMaximum bit rate                 : 619 Kbps\nChannel(s)                       : 6 channels\nChannel positions                : Front: L C R, Rear: L R, LFE\nSampling rate                    : 48.0 KHz\nResolution                       : 16 bits\nStream size                      : 294 MiB (20%)\nLanguage                         : English\n\nSubtitles: English, Dutch (*.srt)\n*********************************\n","torrent":{"xt":"urn:btih:fbf73e9eb2be5f2207a6ab7c6aa4ceb297cb3b5d","amp;dn":"Unthinkable.2010.BRRip.AAC.H264-LTT","amp;tr":["udp%3A%2F%2Ftracker.openbittorrent.com%3A80","udp%3A%2F%2Fopen.demonii.com%3A1337","udp%3A%2F%2Ftracker.coppersurfer.tk%3A6969","udp%3A%2F%2Fexodus.desync.com%3A6969"],"infoHash":"fbf73e9eb2be5f2207a6ab7c6aa4ceb297cb3b5d","infoHashBuffer":{"type":"Buffer","data":[251,247,62,158,178,190,95,34,7,166,171,124,106,164,206,178,151,203,59,93]},"announce":[],"urlList":[]}}